# 3ds Max Wavefront OBJ Exporter v0.97b - (c)2007 guruware
# File Created: 11.03.2019 22:30:37

mtllib GameBoard_01.mtl

#
# object Moving_Area
#

v  -240.6113 0.2557 -144.3668
v  -240.6113 0.2557 -96.2445
v  -192.4890 0.2557 -96.2445
v  -192.4890 0.2557 -144.3668
v  -240.6113 0.2557 -48.1223
v  -192.4890 0.2557 -48.1223
v  -240.6113 0.2557 -0.0000
v  -192.4890 0.2557 -0.0000
v  -240.6113 0.2557 48.1222
v  -192.4890 0.2557 48.1223
v  -240.6113 0.2557 96.2445
v  -192.4890 0.2557 96.2445
v  -240.6113 0.2557 144.3668
v  -192.4890 0.2557 144.3668
v  -144.3668 0.2557 -96.2445
v  -144.3668 0.2557 -144.3668
v  -144.3668 0.2557 -48.1223
v  -144.3668 0.2557 -0.0000
v  -144.3668 0.2557 48.1223
v  -144.3668 0.2557 96.2445
v  -144.3668 0.2557 144.3668
v  -96.2445 0.2557 -96.2445
v  -96.2445 0.2557 -144.3668
v  -96.2445 0.2557 -48.1223
v  -96.2445 0.2557 -0.0000
v  -96.2445 0.2557 48.1223
v  -96.2445 0.2557 96.2445
v  -96.2445 0.2557 144.3668
v  -48.1223 0.2557 -96.2445
v  -48.1223 0.2557 -144.3668
v  -48.1223 0.2557 -48.1223
v  -48.1223 0.2557 -0.0000
v  -48.1223 0.2557 48.1223
v  -48.1223 0.2557 96.2445
v  -48.1223 0.2557 144.3668
v  0.0000 0.2557 -96.2445
v  0.0000 0.2557 -144.3668
v  0.0000 0.2557 -48.1223
v  0.0000 0.2557 -0.0000
v  -0.0000 0.2557 48.1223
v  -0.0000 0.2557 96.2445
v  -0.0000 0.2557 144.3668
v  48.1223 0.2557 -96.2445
v  48.1223 0.2557 -144.3668
v  48.1223 0.2557 -48.1223
v  48.1223 0.2557 0.0000
v  48.1223 0.2557 48.1223
v  48.1223 0.2557 96.2445
v  48.1223 0.2557 144.3668
v  96.2445 0.2557 -96.2445
v  96.2445 0.2557 -144.3668
v  96.2445 0.2557 -48.1223
v  96.2445 0.2557 0.0000
v  96.2445 0.2557 48.1223
v  96.2445 0.2557 96.2445
v  96.2445 0.2557 144.3668
v  144.3668 0.2557 -96.2445
v  144.3668 0.2557 -144.3668
v  144.3668 0.2557 -48.1223
v  144.3668 0.2557 0.0000
v  144.3668 0.2557 48.1223
v  144.3668 0.2557 96.2445
v  144.3668 0.2557 144.3668
v  192.4890 0.2557 -96.2445
v  192.4890 0.2557 -144.3668
v  192.4890 0.2557 -48.1223
v  192.4890 0.2557 0.0000
v  192.4890 0.2557 48.1223
v  192.4890 0.2557 96.2445
v  192.4890 0.2557 144.3668
v  240.6113 0.2557 -96.2445
v  240.6113 0.2557 -144.3668
v  240.6113 0.2557 -48.1222
v  240.6113 0.2557 0.0000
v  240.6113 0.2557 48.1223
v  240.6113 0.2557 96.2445
v  240.6113 0.2557 144.3668
v  -240.6113 -3.1722 -144.3668
v  -240.6113 -3.1722 -96.2445
v  -240.6113 -3.1722 -48.1223
v  -240.6113 -3.1722 -0.0000
v  -240.6113 -3.1722 48.1222
v  -240.6113 -3.1722 96.2445
v  -240.6113 -3.1722 144.3668
v  -192.4891 -3.1722 144.3668
v  -144.3668 -3.1722 144.3668
v  -96.2445 -3.1722 144.3668
v  -48.1223 -3.1722 144.3668
v  -0.0000 -3.1722 144.3668
v  48.1223 -3.1722 144.3668
v  96.2445 -3.1722 144.3668
v  144.3668 -3.1722 144.3668
v  192.4891 -3.1722 144.3668
v  240.6113 -3.1722 144.3668
v  240.6113 -3.1722 96.2445
v  240.6113 -3.1722 48.1223
v  240.6113 -3.1722 0.0000
v  240.6113 -3.1722 -48.1222
v  240.6113 -3.1722 -96.2445
v  240.6113 -3.1722 -144.3668
v  192.4891 -3.1722 -144.3668
v  144.3668 -3.1722 -144.3668
v  96.2445 -3.1722 -144.3668
v  48.1223 -3.1722 -144.3668
v  0.0000 -3.1722 -144.3668
v  -48.1223 -3.1722 -144.3668
v  -96.2445 -3.1722 -144.3668
v  -144.3668 -3.1722 -144.3668
v  -192.4891 -3.1722 -144.3668
# 109 vertices

vn -0.5773 0.5774 -0.5773
vn -0.7071 0.7071 -0.0000
vn 0.0000 1.0000 -0.0000
vn 0.0000 0.7071 -0.7071
vn -0.5773 0.5774 0.5773
vn -0.0000 0.7071 0.7071
vn 0.7071 0.7071 0.0000
vn 0.5773 0.5774 -0.5773
vn 0.5773 0.5774 0.5773
vn -0.7071 0.0000 -0.7071
vn -1.0000 0.0000 -0.0000
vn -0.7071 0.0000 0.7071
vn -0.0000 0.0000 1.0000
vn 0.0000 0.0000 1.0000
vn -0.0000 -0.0000 1.0000
vn 0.7071 0.0000 0.7071
vn 1.0000 0.0000 0.0000
vn 0.7071 0.0000 -0.7071
vn 0.0000 0.0000 -1.0000
vn -0.0000 0.0000 -1.0000
vn 0.0000 -0.0000 -1.0000
# 21 vertex normals

vt 0.0005 0.5999 0.0000
vt 0.0005 0.5000 0.0000
vt 0.1004 0.5000 0.0000
vt 0.1004 0.5999 0.0000
vt 0.0005 0.4001 0.0000
vt 0.1004 0.4001 0.0000
vt 0.0005 0.3002 0.0000
vt 0.1004 0.3002 0.0000
vt 0.0005 0.2003 0.0000
vt 0.1004 0.2003 0.0000
vt 0.0005 0.1004 0.0000
vt 0.1004 0.1004 0.0000
vt 0.0005 0.0005 0.0000
vt 0.1004 0.0005 0.0000
vt 0.2003 0.5000 0.0000
vt 0.2003 0.5999 0.0000
vt 0.2003 0.4001 0.0000
vt 0.2003 0.3002 0.0000
vt 0.2003 0.2003 0.0000
vt 0.2003 0.1004 0.0000
vt 0.2003 0.0005 0.0000
vt 0.3002 0.5000 0.0000
vt 0.3002 0.5999 0.0000
vt 0.3002 0.4001 0.0000
vt 0.3002 0.3002 0.0000
vt 0.3002 0.2003 0.0000
vt 0.3002 0.1004 0.0000
vt 0.3002 0.0005 0.0000
vt 0.4001 0.5000 0.0000
vt 0.4001 0.5999 0.0000
vt 0.4001 0.4001 0.0000
vt 0.4001 0.3002 0.0000
vt 0.4001 0.2003 0.0000
vt 0.4001 0.1004 0.0000
vt 0.4001 0.0005 0.0000
vt 0.5000 0.5000 0.0000
vt 0.5000 0.5999 0.0000
vt 0.5000 0.4001 0.0000
vt 0.5000 0.3002 0.0000
vt 0.5000 0.2003 0.0000
vt 0.5000 0.1004 0.0000
vt 0.5000 0.0005 0.0000
vt 0.5999 0.5000 0.0000
vt 0.5999 0.5999 0.0000
vt 0.5999 0.4001 0.0000
vt 0.5999 0.3002 0.0000
vt 0.5999 0.2003 0.0000
vt 0.5999 0.1004 0.0000
vt 0.5999 0.0005 0.0000
vt 0.6998 0.5000 0.0000
vt 0.6998 0.5999 0.0000
vt 0.6998 0.4001 0.0000
vt 0.6998 0.3002 0.0000
vt 0.6998 0.2003 0.0000
vt 0.6998 0.1004 0.0000
vt 0.6998 0.0005 0.0000
vt 0.7997 0.5000 0.0000
vt 0.7997 0.5999 0.0000
vt 0.7997 0.4001 0.0000
vt 0.7997 0.3002 0.0000
vt 0.7997 0.2003 0.0000
vt 0.7997 0.1004 0.0000
vt 0.7997 0.0005 0.0000
vt 0.8996 0.5000 0.0000
vt 0.8996 0.5999 0.0000
vt 0.8996 0.4001 0.0000
vt 0.8996 0.3002 0.0000
vt 0.8996 0.2003 0.0000
vt 0.8996 0.1004 0.0000
vt 0.8996 0.0005 0.0000
vt 0.9995 0.5000 0.0000
vt 0.9995 0.5999 0.0000
vt 0.9995 0.4001 0.0000
vt 0.9995 0.3002 0.0000
vt 0.9995 0.2003 0.0000
vt 0.9995 0.1004 0.0000
vt 0.9995 0.0005 0.0000
vt 0.0005 0.6545 0.0000
vt 0.1004 0.6545 0.0000
vt 0.1004 0.6632 0.0000
vt 0.0005 0.6632 0.0000
vt 0.2003 0.6545 0.0000
vt 0.2003 0.6632 0.0000
vt 0.3002 0.6545 0.0000
vt 0.3002 0.6632 0.0000
vt 0.4001 0.6545 0.0000
vt 0.4001 0.6632 0.0000
vt 0.5000 0.6545 0.0000
vt 0.5000 0.6632 0.0000
vt 0.5999 0.6545 0.0000
vt 0.5999 0.6632 0.0000
vt 0.0005 0.6308 0.0000
vt 0.1004 0.6308 0.0000
vt 0.1004 0.6395 0.0000
vt 0.0005 0.6395 0.0000
vt 0.2003 0.6308 0.0000
vt 0.2003 0.6395 0.0000
vt 0.3002 0.6308 0.0000
vt 0.3002 0.6395 0.0000
vt 0.4001 0.6308 0.0000
vt 0.4001 0.6395 0.0000
vt 0.5000 0.6308 0.0000
vt 0.5000 0.6395 0.0000
vt 0.5999 0.6308 0.0000
vt 0.5999 0.6395 0.0000
vt 0.6998 0.6308 0.0000
vt 0.6998 0.6395 0.0000
vt 0.7997 0.6308 0.0000
vt 0.7997 0.6395 0.0000
vt 0.8996 0.6308 0.0000
vt 0.8996 0.6395 0.0000
vt 0.9995 0.6308 0.0000
vt 0.9995 0.6395 0.0000
vt 0.0005 0.6427 0.0000
vt 0.1004 0.6427 0.0000
vt 0.1004 0.6514 0.0000
vt 0.0005 0.6514 0.0000
vt 0.2003 0.6427 0.0000
vt 0.2003 0.6514 0.0000
vt 0.3002 0.6427 0.0000
vt 0.3002 0.6514 0.0000
vt 0.4001 0.6427 0.0000
vt 0.4001 0.6514 0.0000
vt 0.5000 0.6427 0.0000
vt 0.5000 0.6514 0.0000
vt 0.5999 0.6427 0.0000
vt 0.5999 0.6514 0.0000
vt 0.0005 0.6109 0.0000
vt 0.1004 0.6109 0.0000
vt 0.1004 0.6196 0.0000
vt 0.0005 0.6196 0.0000
vt 0.2003 0.6109 0.0000
vt 0.2003 0.6196 0.0000
vt 0.3002 0.6109 0.0000
vt 0.3002 0.6196 0.0000
vt 0.4001 0.6109 0.0000
vt 0.4001 0.6196 0.0000
vt 0.5000 0.6109 0.0000
vt 0.5000 0.6196 0.0000
vt 0.5999 0.6109 0.0000
vt 0.5999 0.6196 0.0000
vt 0.6998 0.6109 0.0000
vt 0.6998 0.6196 0.0000
vt 0.7997 0.6109 0.0000
vt 0.7997 0.6196 0.0000
vt 0.8996 0.6109 0.0000
vt 0.8996 0.6196 0.0000
vt 0.9995 0.6109 0.0000
vt 0.9995 0.6196 0.0000
# 149 texture coords

o Moving_Area
g Moving_Area
usemtl Dirt_sec
s 4
f 1/1/1 2/2/2 3/3/3 4/4/4 
f 2/2/2 5/5/2 6/6/3 3/3/3 
f 5/5/2 7/7/2 8/8/3 6/6/3 
f 7/7/2 9/9/2 10/10/3 8/8/3 
f 9/9/2 11/11/2 12/12/3 10/10/3 
f 11/11/2 13/13/5 14/14/6 12/12/3 
f 4/4/4 3/3/3 15/15/3 16/16/4 
f 3/3/3 6/6/3 17/17/3 15/15/3 
f 6/6/3 8/8/3 18/18/3 17/17/3 
f 8/8/3 10/10/3 19/19/3 18/18/3 
f 10/10/3 12/12/3 20/20/3 19/19/3 
f 12/12/3 14/14/6 21/21/6 20/20/3 
f 16/16/4 15/15/3 22/22/3 23/23/4 
f 15/15/3 17/17/3 24/24/3 22/22/3 
f 17/17/3 18/18/3 25/25/3 24/24/3 
f 18/18/3 19/19/3 26/26/3 25/25/3 
f 19/19/3 20/20/3 27/27/3 26/26/3 
f 20/20/3 21/21/6 28/28/6 27/27/3 
f 23/23/4 22/22/3 29/29/3 30/30/4 
f 22/22/3 24/24/3 31/31/3 29/29/3 
f 24/24/3 25/25/3 32/32/3 31/31/3 
f 25/25/3 26/26/3 33/33/3 32/32/3 
f 26/26/3 27/27/3 34/34/3 33/33/3 
f 27/27/3 28/28/6 35/35/6 34/34/3 
f 30/30/4 29/29/3 36/36/3 37/37/4 
f 29/29/3 31/31/3 38/38/3 36/36/3 
f 31/31/3 32/32/3 39/39/3 38/38/3 
f 32/32/3 33/33/3 40/40/3 39/39/3 
f 33/33/3 34/34/3 41/41/3 40/40/3 
f 34/34/3 35/35/6 42/42/6 41/41/3 
f 37/37/4 36/36/3 43/43/3 44/44/4 
f 36/36/3 38/38/3 45/45/3 43/43/3 
f 38/38/3 39/39/3 46/46/3 45/45/3 
f 39/39/3 40/40/3 47/47/3 46/46/3 
f 40/40/3 41/41/3 48/48/3 47/47/3 
f 41/41/3 42/42/6 49/49/6 48/48/3 
f 44/44/4 43/43/3 50/50/3 51/51/4 
f 43/43/3 45/45/3 52/52/3 50/50/3 
f 45/45/3 46/46/3 53/53/3 52/52/3 
f 46/46/3 47/47/3 54/54/3 53/53/3 
f 47/47/3 48/48/3 55/55/3 54/54/3 
f 48/48/3 49/49/6 56/56/6 55/55/3 
f 51/51/4 50/50/3 57/57/3 58/58/4 
f 50/50/3 52/52/3 59/59/3 57/57/3 
f 52/52/3 53/53/3 60/60/3 59/59/3 
f 53/53/3 54/54/3 61/61/3 60/60/3 
f 54/54/3 55/55/3 62/62/3 61/61/3 
f 55/55/3 56/56/6 63/63/6 62/62/3 
f 58/58/4 57/57/3 64/64/3 65/65/4 
f 57/57/3 59/59/3 66/66/3 64/64/3 
f 59/59/3 60/60/3 67/67/3 66/66/3 
f 60/60/3 61/61/3 68/68/3 67/67/3 
f 61/61/3 62/62/3 69/69/3 68/68/3 
f 62/62/3 63/63/6 70/70/6 69/69/3 
f 65/65/4 64/64/3 71/71/7 72/72/8 
f 64/64/3 66/66/3 73/73/7 71/71/7 
f 66/66/3 67/67/3 74/74/7 73/73/7 
f 67/67/3 68/68/3 75/75/7 74/74/7 
f 68/68/3 69/69/3 76/76/7 75/75/7 
f 69/69/3 70/70/6 77/77/9 76/76/7 
s 8
f 78/78/10 79/79/11 2/80/2 1/81/1 
f 79/79/11 80/82/11 5/83/2 2/80/2 
f 80/82/11 81/84/11 7/85/2 5/83/2 
f 81/84/11 82/86/11 9/87/2 7/85/2 
f 82/86/11 83/88/11 11/89/2 9/87/2 
f 83/88/11 84/90/12 13/91/5 11/89/2 
s 16
f 84/92/12 85/93/13 14/94/6 13/95/5 
f 85/93/13 86/96/13 21/97/6 14/94/6 
f 86/96/13 87/98/14 28/99/6 21/97/6 
f 87/98/14 88/100/13 35/101/6 28/99/6 
f 88/100/13 89/102/13 42/103/6 35/101/6 
f 89/102/13 90/104/13 49/105/6 42/103/6 
f 90/104/13 91/106/14 56/107/6 49/105/6 
f 91/106/14 92/108/15 63/109/6 56/107/6 
f 92/108/15 93/110/13 70/111/6 63/109/6 
f 93/110/13 94/112/16 77/113/9 70/111/6 
s 32
f 94/114/16 95/115/17 76/116/7 77/117/9 
f 95/115/17 96/118/17 75/119/7 76/116/7 
f 96/118/17 97/120/17 74/121/7 75/119/7 
f 97/120/17 98/122/17 73/123/7 74/121/7 
f 98/122/17 99/124/17 71/125/7 73/123/7 
f 99/124/17 100/126/18 72/127/8 71/125/7 
s 64
f 100/128/18 101/129/19 65/130/4 72/131/8 
f 101/129/19 102/132/19 58/133/4 65/130/4 
f 102/132/19 103/134/20 51/135/4 58/133/4 
f 103/134/20 104/136/19 44/137/4 51/135/4 
f 104/136/19 105/138/19 37/139/4 44/137/4 
f 105/138/19 106/140/19 30/141/4 37/139/4 
f 106/140/19 107/142/20 23/143/4 30/141/4 
f 107/142/20 108/144/21 16/145/4 23/143/4 
f 108/144/21 109/146/19 4/147/4 16/145/4 
f 109/146/19 78/148/10 1/149/1 4/147/4 
# 92 polygons

