# 3ds Max Wavefront OBJ Exporter v0.97b - (c)2007 guruware
# File Created: 04.03.2019 09:37:44

mtllib Ground_01.mtl

#
# object Ground_01
#

v  -745.3309 0.0019 -447.1986
v  -745.3309 0.0019 -298.1324
v  -596.2648 0.0019 -298.1324
v  -596.2648 0.0019 -447.1986
v  -745.3309 0.0019 -149.0662
v  -596.2648 0.0019 -149.0662
v  -745.3309 0.0019 -0.0000
v  -596.2648 0.0019 -0.0000
v  -745.3309 0.0019 149.0662
v  -596.2648 0.0019 149.0662
v  -745.3309 0.0019 298.1324
v  -596.2648 0.0019 298.1324
v  -745.3309 0.0019 447.1986
v  -596.2648 0.0019 447.1986
v  -447.1985 0.0019 -298.1324
v  -447.1985 0.0019 -447.1986
v  -447.1985 0.0019 -149.0662
v  -447.1985 0.0019 -0.0000
v  -447.1985 0.0019 149.0662
v  -447.1985 0.0019 298.1324
v  -447.1986 0.0019 447.1986
v  -298.1324 0.0019 -298.1324
v  -298.1323 0.0019 -447.1986
v  -298.1324 0.0019 -149.0662
v  -298.1324 0.0019 -0.0000
v  -298.1324 0.0019 149.0662
v  -298.1324 0.0019 298.1324
v  -298.1324 0.0019 447.1986
v  -149.0661 0.0019 -298.1324
v  -149.0661 0.0019 -447.1986
v  -149.0662 0.0019 -149.0662
v  -149.0662 0.0019 -0.0000
v  -149.0662 0.0019 149.0662
v  -149.0662 0.0019 298.1324
v  -149.0662 0.0019 447.1986
v  0.0000 0.0019 -298.1324
v  0.0000 0.0019 -447.1986
v  0.0000 0.0019 -149.0662
v  0.0000 0.0019 0.0000
v  0.0000 0.0019 149.0662
v  0.0000 0.0019 298.1324
v  0.0000 0.0019 447.1986
v  149.0662 0.0019 -298.1324
v  149.0662 0.0019 -447.1986
v  149.0662 0.0019 -149.0662
v  149.0662 0.0019 0.0000
v  149.0662 0.0019 149.0662
v  149.0662 0.0019 298.1324
v  149.0662 0.0019 447.1986
v  298.1324 0.0019 -298.1324
v  298.1324 0.0019 -447.1986
v  298.1324 0.0019 -149.0662
v  298.1324 0.0019 0.0000
v  298.1324 0.0019 149.0662
v  298.1324 0.0019 298.1324
v  298.1324 0.0019 447.1986
v  447.1986 0.0019 -298.1324
v  447.1986 0.0019 -447.1986
v  447.1986 0.0019 -149.0662
v  447.1986 0.0019 0.0000
v  447.1986 0.0019 149.0662
v  447.1986 0.0019 298.1324
v  447.1986 0.0019 447.1986
v  596.2648 0.0019 -298.1324
v  596.2648 0.0019 -447.1986
v  596.2648 0.0019 -149.0662
v  596.2648 0.0019 0.0000
v  596.2648 0.0019 149.0662
v  596.2648 0.0019 298.1324
v  596.2648 0.0019 447.1986
v  745.3310 0.0019 -298.1324
v  745.3310 0.0019 -447.1986
v  745.3310 0.0019 -149.0662
v  745.3310 0.0019 0.0000
v  745.3310 0.0019 149.0662
v  745.3310 0.0019 298.1324
v  745.3310 0.0019 447.1986
v  -745.3309 -7.4514 -447.1986
v  -745.3309 -7.4514 -298.1324
v  -745.3309 -7.4514 -149.0662
v  -745.3309 -7.4514 -0.0000
v  -745.3309 -7.4514 149.0662
v  -745.3309 -7.4514 298.1324
v  -745.3309 -7.4514 447.1986
v  -596.2648 -7.4514 447.1986
v  -447.1986 -7.4514 447.1986
v  -298.1324 -7.4514 447.1986
v  -149.0662 -7.4514 447.1986
v  0.0000 -7.4514 447.1986
v  149.0662 -7.4514 447.1986
v  298.1324 -7.4514 447.1986
v  447.1986 -7.4514 447.1986
v  596.2648 -7.4514 447.1986
v  745.3310 -7.4514 447.1986
v  745.3310 -7.4514 298.1324
v  745.3310 -7.4514 149.0662
v  745.3310 -7.4514 0.0000
v  745.3310 -7.4514 -149.0662
v  745.3310 -7.4514 -298.1324
v  745.3310 -7.4514 -447.1986
v  596.2648 -7.4514 -447.1986
v  447.1986 -7.4514 -447.1986
v  298.1324 -7.4514 -447.1986
v  149.0662 -7.4514 -447.1986
v  0.0000 -7.4514 -447.1986
v  -149.0661 -7.4514 -447.1986
v  -298.1323 -7.4514 -447.1986
v  -447.1985 -7.4514 -447.1986
v  -596.2648 -7.4514 -447.1986
# 109 vertices

vn -0.5774 0.5774 -0.5774
vn -0.7071 0.7071 -0.0000
vn 0.0000 1.0000 -0.0000
vn 0.0000 0.7071 -0.7071
vn -0.5774 0.5774 0.5774
vn -0.0000 0.7071 0.7071
vn 0.7071 0.7071 0.0000
vn 0.5774 0.5774 -0.5774
vn 0.5774 0.5774 0.5774
vn -0.7071 0.0000 -0.7071
vn -1.0000 0.0000 -0.0000
vn -0.7071 0.0000 0.7071
vn -0.0000 0.0000 1.0000
vn 0.7071 0.0000 0.7071
vn 1.0000 0.0000 0.0000
vn 0.7071 0.0000 -0.7071
vn 0.0000 0.0000 -1.0000
# 17 vertex normals

vt -2.7659 2.4596 0.0000
vt -2.7659 1.8064 0.0000
vt -2.1127 1.8064 0.0000
vt -2.1127 2.4596 0.0000
vt -2.7659 1.1532 0.0000
vt -2.1127 1.1532 0.0000
vt -2.7659 0.5000 0.0000
vt -2.1127 0.5000 0.0000
vt -2.7659 -0.1532 0.0000
vt -2.1127 -0.1532 0.0000
vt -2.7659 -0.8064 0.0000
vt -2.1127 -0.8064 0.0000
vt -2.7659 -1.4596 0.0000
vt -2.1127 -1.4596 0.0000
vt -1.4596 1.8064 0.0000
vt -1.4596 2.4596 0.0000
vt -1.4596 1.1532 0.0000
vt -1.4596 0.5000 0.0000
vt -1.4596 -0.1532 0.0000
vt -1.4596 -0.8064 0.0000
vt -1.4596 -1.4596 0.0000
vt -0.8064 1.8064 0.0000
vt -0.8064 2.4596 0.0000
vt -0.8064 1.1532 0.0000
vt -0.8064 0.5000 0.0000
vt -0.8064 -0.1532 0.0000
vt -0.8064 -0.8064 0.0000
vt -0.8064 -1.4596 0.0000
vt -0.1532 1.8064 0.0000
vt -0.1532 2.4596 0.0000
vt -0.1532 1.1532 0.0000
vt -0.1532 0.5000 0.0000
vt -0.1532 -0.1532 0.0000
vt -0.1532 -0.8064 0.0000
vt -0.1532 -1.4596 0.0000
vt 0.5000 1.8064 0.0000
vt 0.5000 2.4596 0.0000
vt 0.5000 1.1532 0.0000
vt 0.5000 0.5000 0.0000
vt 0.5000 -0.1532 0.0000
vt 0.5000 -0.8064 0.0000
vt 0.5000 -1.4596 0.0000
vt 1.1532 1.8064 0.0000
vt 1.1532 2.4596 0.0000
vt 1.1532 1.1532 0.0000
vt 1.1532 0.5000 0.0000
vt 1.1532 -0.1532 0.0000
vt 1.1532 -0.8064 0.0000
vt 1.1532 -1.4596 0.0000
vt 1.8064 1.8064 0.0000
vt 1.8064 2.4596 0.0000
vt 1.8064 1.1532 0.0000
vt 1.8064 0.5000 0.0000
vt 1.8064 -0.1532 0.0000
vt 1.8064 -0.8064 0.0000
vt 1.8064 -1.4596 0.0000
vt 2.4596 1.8064 0.0000
vt 2.4596 2.4596 0.0000
vt 2.4596 1.1532 0.0000
vt 2.4596 0.5000 0.0000
vt 2.4596 -0.1532 0.0000
vt 2.4596 -0.8064 0.0000
vt 2.4596 -1.4596 0.0000
vt 3.1127 1.8064 0.0000
vt 3.1127 2.4596 0.0000
vt 3.1127 1.1532 0.0000
vt 3.1127 0.5000 0.0000
vt 3.1127 -0.1532 0.0000
vt 3.1127 -0.8064 0.0000
vt 3.1127 -1.4596 0.0000
vt 3.7659 1.8064 0.0000
vt 3.7659 2.4596 0.0000
vt 3.7659 1.1532 0.0000
vt 3.7659 0.5000 0.0000
vt 3.7659 -0.1532 0.0000
vt 3.7659 -0.8064 0.0000
vt 3.7659 -1.4596 0.0000
vt 0.7700 0.4977 0.0000
vt 0.6800 0.4977 0.0000
vt 0.6800 0.5022 0.0000
vt 0.7700 0.5022 0.0000
vt 0.5900 0.4977 0.0000
vt 0.5900 0.5022 0.0000
vt 0.5000 0.4977 0.0000
vt 0.5000 0.5022 0.0000
vt 0.4100 0.4977 0.0000
vt 0.4100 0.5022 0.0000
vt 0.3200 0.4977 0.0000
vt 0.3200 0.5022 0.0000
vt 0.2300 0.4977 0.0000
vt 0.2300 0.5022 0.0000
# 91 texture coords

o Ground_01
g Ground_01
usemtl Dirt_sec
s 4
f 1/1/1 2/2/2 3/3/3 4/4/4 
f 2/2/2 5/5/2 6/6/3 3/3/3 
f 5/5/2 7/7/2 8/8/3 6/6/3 
f 7/7/2 9/9/2 10/10/3 8/8/3 
f 9/9/2 11/11/2 12/12/3 10/10/3 
f 11/11/2 13/13/5 14/14/6 12/12/3 
f 4/4/4 3/3/3 15/15/3 16/16/4 
f 3/3/3 6/6/3 17/17/3 15/15/3 
f 6/6/3 8/8/3 18/18/3 17/17/3 
f 8/8/3 10/10/3 19/19/3 18/18/3 
f 10/10/3 12/12/3 20/20/3 19/19/3 
f 12/12/3 14/14/6 21/21/6 20/20/3 
f 16/16/4 15/15/3 22/22/3 23/23/4 
f 15/15/3 17/17/3 24/24/3 22/22/3 
f 17/17/3 18/18/3 25/25/3 24/24/3 
f 18/18/3 19/19/3 26/26/3 25/25/3 
f 19/19/3 20/20/3 27/27/3 26/26/3 
f 20/20/3 21/21/6 28/28/6 27/27/3 
f 23/23/4 22/22/3 29/29/3 30/30/4 
f 22/22/3 24/24/3 31/31/3 29/29/3 
f 24/24/3 25/25/3 32/32/3 31/31/3 
f 25/25/3 26/26/3 33/33/3 32/32/3 
f 26/26/3 27/27/3 34/34/3 33/33/3 
f 27/27/3 28/28/6 35/35/6 34/34/3 
f 30/30/4 29/29/3 36/36/3 37/37/4 
f 29/29/3 31/31/3 38/38/3 36/36/3 
f 31/31/3 32/32/3 39/39/3 38/38/3 
f 32/32/3 33/33/3 40/40/3 39/39/3 
f 33/33/3 34/34/3 41/41/3 40/40/3 
f 34/34/3 35/35/6 42/42/6 41/41/3 
f 37/37/4 36/36/3 43/43/3 44/44/4 
f 36/36/3 38/38/3 45/45/3 43/43/3 
f 38/38/3 39/39/3 46/46/3 45/45/3 
f 39/39/3 40/40/3 47/47/3 46/46/3 
f 40/40/3 41/41/3 48/48/3 47/47/3 
f 41/41/3 42/42/6 49/49/6 48/48/3 
f 44/44/4 43/43/3 50/50/3 51/51/4 
f 43/43/3 45/45/3 52/52/3 50/50/3 
f 45/45/3 46/46/3 53/53/3 52/52/3 
f 46/46/3 47/47/3 54/54/3 53/53/3 
f 47/47/3 48/48/3 55/55/3 54/54/3 
f 48/48/3 49/49/6 56/56/6 55/55/3 
f 51/51/4 50/50/3 57/57/3 58/58/4 
f 50/50/3 52/52/3 59/59/3 57/57/3 
f 52/52/3 53/53/3 60/60/3 59/59/3 
f 53/53/3 54/54/3 61/61/3 60/60/3 
f 54/54/3 55/55/3 62/62/3 61/61/3 
f 55/55/3 56/56/6 63/63/6 62/62/3 
f 58/58/4 57/57/3 64/64/3 65/65/4 
f 57/57/3 59/59/3 66/66/3 64/64/3 
f 59/59/3 60/60/3 67/67/3 66/66/3 
f 60/60/3 61/61/3 68/68/3 67/67/3 
f 61/61/3 62/62/3 69/69/3 68/68/3 
f 62/62/3 63/63/6 70/70/6 69/69/3 
f 65/65/4 64/64/3 71/71/7 72/72/8 
f 64/64/3 66/66/3 73/73/7 71/71/7 
f 66/66/3 67/67/3 74/74/7 73/73/7 
f 67/67/3 68/68/3 75/75/7 74/74/7 
f 68/68/3 69/69/3 76/76/7 75/75/7 
f 69/69/3 70/70/6 77/77/9 76/76/7 
s 8
f 78/78/10 79/79/11 2/80/2 1/81/1 
f 79/79/11 80/82/11 5/83/2 2/80/2 
f 80/82/11 81/84/11 7/85/2 5/83/2 
f 81/84/11 82/86/11 9/87/2 7/85/2 
f 82/86/11 83/88/11 11/89/2 9/87/2 
f 83/88/11 84/90/12 13/91/5 11/89/2 
s 16
f 84/90/12 85/90/13 14/91/6 13/91/5 
f 85/90/13 86/90/13 21/91/6 14/91/6 
f 86/90/13 87/90/13 28/91/6 21/91/6 
f 87/90/13 88/90/13 35/91/6 28/91/6 
f 88/90/13 89/90/13 42/91/6 35/91/6 
f 89/90/13 90/90/13 49/91/6 42/91/6 
f 90/90/13 91/90/13 56/91/6 49/91/6 
f 91/90/13 92/90/13 63/91/6 56/91/6 
f 92/90/13 93/90/13 70/91/6 63/91/6 
f 93/90/13 94/90/14 77/91/9 70/91/6 
s 32
f 94/90/14 95/88/15 76/89/7 77/91/9 
f 95/88/15 96/86/15 75/87/7 76/89/7 
f 96/86/15 97/84/15 74/85/7 75/87/7 
f 97/84/15 98/82/15 73/83/7 74/85/7 
f 98/82/15 99/79/15 71/80/7 73/83/7 
f 99/79/15 100/78/16 72/81/8 71/80/7 
s 64
f 100/78/16 101/78/17 65/81/4 72/81/8 
f 101/78/17 102/78/17 58/81/4 65/81/4 
f 102/78/17 103/78/17 51/81/4 58/81/4 
f 103/78/17 104/78/17 44/81/4 51/81/4 
f 104/78/17 105/78/17 37/81/4 44/81/4 
f 105/78/17 106/78/17 30/81/4 37/81/4 
f 106/78/17 107/78/17 23/81/4 30/81/4 
f 107/78/17 108/78/17 16/81/4 23/81/4 
f 108/78/17 109/78/17 4/81/4 16/81/4 
f 109/78/17 78/78/10 1/81/1 4/81/4 
# 92 polygons

