# 3ds Max Wavefront OBJ Exporter v0.97b - (c)2007 guruware
# File Created: 18.03.2019 11:12:23

mtllib Terrain_Block_01.mtl

#
# object Terrain_Block
#

v  -7.8740 15.7480 7.8740
v  7.8740 15.7480 7.8740
v  7.8740 15.7480 -7.8740
v  -7.8740 15.7480 -7.8740
v  7.8740 3.9370 7.8740
v  7.8740 7.8740 7.8740
v  -7.8740 7.8740 7.8740
v  -7.8740 3.9370 7.8740
v  7.8740 3.9370 -7.8740
v  7.8740 7.8740 -7.8740
v  -7.8740 3.9370 -7.8740
v  -7.8740 7.8740 -7.8740
v  7.8740 11.8110 7.8740
v  -7.8740 11.8110 7.8740
v  -7.8740 0.0000 7.8740
v  7.8740 0.0000 7.8740
v  7.8740 11.8110 -7.8740
v  7.8740 0.0000 -7.8740
v  -7.8740 11.8110 -7.8740
v  -7.8740 0.0000 -7.8740
# 20 vertices

vn -0.5774 0.5774 0.5774
vn 0.5774 0.5774 0.5774
vn 0.5774 0.5774 -0.5774
vn -0.5774 0.5774 -0.5774
vn 0.7071 0.0000 0.7071
vn -0.7071 0.0000 0.7071
vn 0.7071 0.0000 -0.7071
vn -0.7071 0.0000 -0.7071
# 8 vertex normals

vt 0.4797 0.4647 0.0000
vt 0.8895 0.4647 0.0000
vt 0.8895 0.8746 0.0000
vt 0.4797 0.8746 0.0000
vt 0.4483 0.2091 0.0000
vt 0.4483 0.3115 0.0000
vt 0.0385 0.3115 0.0000
vt 0.0385 0.2091 0.0000
vt 0.4507 0.2120 0.0000
vt 0.4507 0.3144 0.0000
vt 0.0409 0.3144 0.0000
vt 0.0409 0.2120 0.0000
vt 0.8895 0.3623 0.0000
vt 0.4797 0.3623 0.0000
vt 0.4483 0.4140 0.0000
vt 0.0385 0.4140 0.0000
vt 0.0385 0.1066 0.0000
vt 0.4483 0.1066 0.0000
vt 0.9919 0.8746 0.0000
vt 0.9919 0.4647 0.0000
vt 0.4507 0.4169 0.0000
vt 0.0409 0.4169 0.0000
vt 0.0409 0.1095 0.0000
vt 0.4507 0.1095 0.0000
vt 0.4797 0.9770 0.0000
vt 0.8895 0.9770 0.0000
vt 0.3772 0.4647 0.0000
vt 0.3772 0.8746 0.0000
# 28 texture coords

o Terrain_Block
g Terrain_Block
usemtl 01___Default
s 4
f 1/1/1 2/2/2 3/3/3 4/4/4 
s 8
f 5/5/5 6/6/5 7/7/6 8/8/6 
s 16
f 9/9/7 10/10/7 6/11/5 5/12/5 
s 32
f 11/9/8 12/10/8 10/11/7 9/12/7 
s 64
f 8/9/6 7/10/6 12/11/8 11/12/8 
s 8
f 13/13/5 2/2/2 1/1/1 14/14/6 
f 6/6/5 13/15/5 14/16/6 7/7/6 
f 8/8/6 15/17/6 16/18/5 5/5/5 
s 16
f 17/19/7 3/3/3 2/2/2 13/20/5 
f 10/10/7 17/21/7 13/22/5 6/11/5 
f 5/12/5 16/23/5 18/24/7 9/9/7 
s 32
f 19/25/8 4/4/4 3/3/3 17/26/7 
f 12/10/8 19/21/8 17/22/7 10/11/7 
f 9/12/7 18/23/7 20/24/8 11/9/8 
s 64
f 14/27/6 1/1/1 4/4/4 19/28/8 
f 7/10/6 14/21/6 19/22/8 12/11/8 
f 11/12/8 20/23/8 15/24/6 8/9/6 
# 17 polygons

